# xmcd
#
# Track frame offsets: 
#        150
#        10913
#        27454
#        46303
#        69706
#        80607
#        90663
#        109993
#        127203
#        145333
#        162212
#        175671
#        192741
#        210029
#
# Disc length: 2924 seconds
#
# Revision: 0
# Processed by: cddbd v1.5.2PL0 Copyright (c) Steve Scherf et al.
# Submitted via: ExactAudioCopyFreeDBPlugin 1.0
#
DISCID=c50b6a0e
DTITLE=Various Artist - Chiquito Mexican Grill and Bar - Soundtrack
DYEAR=2005
DGENRE=Soundtrack
TTITLE0=Rosemary Clooney and Percy Faith and his Orchestra - Sawy
TTITLE1=Lou Bega - Mambo No. 5 (A Little Bit Of...)
TTITLE2=Evariste Quintanales - Guantanamera
TTITLE3=Willy Chirine - Rumbera
TTITLE4=Perez Prado - Guagilone
TTITLE5=The Champs - Tequila
TTITLE6=Santana - Oye Como Va
TTITLE7=Gibson Brothers - Cuba
TTITLE8=Gloria Estefan - You'll Be Mine (Party Time)
TTITLE9=Poncho Sanchez and Mongo Santamaria - Watermelon Man
TTITLE10=Tito Puente - Ran Kan Kan
TTITLE11=Pauline Rubie - Baila Casanova
TTITLE12=Tito Nieves - I Like It Like That
TTITLE13=Nancy Ames - Eso Beso (That Kiss)
EXTD=
EXTT0=
EXTT1=
EXTT2=
EXTT3=
EXTT4=
EXTT5=
EXTT6=
EXTT7=
EXTT8=
EXTT9=
EXTT10=
EXTT11=
EXTT12=
EXTT13=
PLAYORDER=
